<?xml version="1.0" encoding="utf-8"?>
<?xml-stylesheet type="text/xsl" href="rss1.xsl"?>
<rss version="2.0" xmlns:atom="http://www.w3.org/2005/Atom" xmlns:content="http://purl.org/rss/1.0/modules/content/" xmlns:dc="http://purl.org/dc/elements/1.1/" xmlns:media="http://search.yahoo.com/mrss/">
<channel>
 <title>Getty</title>
 <link>http://www.gettyimg.com/</link>
 <atom:link href="http://www.gettyimg.com/" rel="self" type="application/rss+xml" />

 
                <item>
                <title><![CDATA[【SD】DVD - Beyoncé — Run The World (Girls) (Clean) (MKV)]]></title>
                <link><![CDATA[https://sharemania.us/threads/beyonc%C3%A9-%E2%80%94-run-the-world-girls-clean-mkv.235005/]]></link>
                <description><![CDATA[<article>
<blockquote class="messageText SelectQuoteContainer ugc baseHtml">
<img src="https://i.imgur.com/DRvgmtg.jpg" class="bbCodeImage LbImage" alt="[​IMG]" data-url="https://i.imgur.com/DRvgmtg.jpg" style=""><br>
<br>
<span style="font-size: 12px"><b>title: </b> Run The World (Girls); <b>artist: </b>Beyoncé<br>
<b>album:</b> 4; <b>year: </b>2011<br>
<b>source: </b>Beyoncé — Live At Roseland. Elements Of 4 (DVD) (2011)</span><br>
<br>
<img src="https://i.imgur.com/TaUNMZ8.png" class="bbCodeImage LbImage" alt="[​IMG]" data-url="https://i.imgur.com/TaUNMZ8.png" style=""><br>
<img src="https://i.imgur.com/VFFpT7O.png" class="bbCodeImage LbImage" alt="[​IMG]" data-url="https://i.imgur.com/VFFpT7O.png" style=""><br>
<img src="https://i.imgur.com/UUC4yPG.png" class="bbCodeImage LbImage" alt="[​IMG]" data-url="https://i.imgur.com/UUC4yPG.png" style=""><br>
<br>
<div class="ToggleTriggerAnchor bbCodeSpoilerContainer">
<button type="button" class="button bbCodeSpoilerButton ToggleTrigger Tooltip JsOnly" data-target="> .SpoilerTarget"><span>Spoiler: <span class="SpoilerTitle">MediaInfo</span></span></button>
<div class="SpoilerTarget bbCodeSpoilerText">General<br>
Format : Matroska<br>
Format version : Version 4<br>
File size : 279 MiB<br>
Duration : 4 min 51 s<br>
Overall bit rate mode : Variable<br>
Overall bit rate : 8 028 kb/s<br>
Frame rate : 144.998 FPS<br>
Encoded date : 2023-12-27 18:35:16 UTC<br>
Writing application : Lavf60.3.100<br>
Writing library : Lavf60.3.100<br>
ErrorDetectionType : Per level 1<br>
<br>
Video<br>
ID : 1<br>
ID in the original source medi : 224 (0xE0)<br>
Format : MPEG Video<br>
Format version : Version 2<br>
Format profile : Main@Main<br>
Format settings : CustomMatrix / BVOP<br>
Format settings, BVOP : Yes<br>
Format settings, Matrix : Custom<br>
Format settings, GOP : Variable<br>
Codec ID : V_MPEG2<br>
Codec ID/Info : MPEG 1 or 2 Video<br>
Duration : 4 min 51 s<br>
Bit rate mode : Variable<br>
Bit rate : 6 484 kb/s<br>
Maximum bit rate : 9 800 kb/s<br>
Width : 720 pixels<br>
Height : 480 pixels<br>
Display aspect ratio : 16:9<br>
Frame rate mode : Variable<br>
Frame rate : 144.998 FPS<br>
Original frame rate : 29.970 (30000/1001) FPS<br>
Color space : YUV<br>
Chroma subsampling : 4:2:0<br>
Bit depth : 8 bits<br>
Compression mode : Lossy<br>
Bits/(Pixel*Frame) : 0.129<br>
Time code of first frame : 01:03:32:02<br>
Time code source : Group of pictures header<br>
Stream size : 1.33 GiB<br>
Language : English<br>
Default : Yes<br>
Forced : No<br>
Color range : Limited<br>
Original source medium : DVD-Video<br>
<br>
Audio<br>
ID : 2<br>
ID in the original source medi : 189 (0xBD)160 (0xA0)<br>
Format : PCM<br>
Format settings : Little / Signed<br>
Codec ID : A_PCM/INT/LIT<br>
Duration : 4 min 51 s<br>
Bit rate mode : Constant<br>
Bit rate : 1 536 kb/s<br>
Channel(s) : 2 channels<br>
Sampling rate : 48.0 kHz<br>
Frame rate : 181.433 FPS (265 SPF)<br>
Bit depth : 16 bits<br>
Delay relative to video : 10 ms<br>
Stream size : 323 MiB<br>
Title : Stereo<br>
Language : English<br>
Default : Yes<br>
Forced : No<br>
Original source medium : DVD-Video</div>
</div><br>
<div class="bbCodeBlock bbCodeVfcHH HiddenContent">
<div class="attribution type">Hidden Content:</div>
<blockquote>You must reply before you can see the hidden data contained here.</blockquote>
</div>
<div class="messageTextEndMarker">&nbsp;</div>
</blockquote>
</article>]]></description>
                <author><![CDATA[vivda]]></author>
                </item>

                </channel></rss>